<svg xmlns="http://www.w3.org/2000/svg" viewBox="0 0 512 512" fill="none">
  <rect width="512" height="512" rx="112" fill="#0d0d0d" />
  <rect x="24" y="24" width="464" height="464" rx="88" stroke="#1e1e1e" stroke-width="16" />
  <path
    d="M370 140H220C178.667 140 152 165.333 152 200C152 234.667 178.667 260 220 260H292C337.333 260 364 286.667 364 322C364 357.333 337.333 384 292 384H136"
    stroke="#7c3aed"
    stroke-width="42"
    stroke-linecap="round"
    stroke-linejoin="round"
  />
  <path
    d="M138 124L156 159L191 177L156 195L138 230L120 195L85 177L120 159L138 124Z"
    fill="#60a5fa"
  />
  <rect x="336" y="330" width="58" height="58" rx="14" fill="#f5f5f5" />
</svg>
