<svg xmlns="http://www.w3.org/2000/svg" viewBox="0 0 64 64" fill="none">
  <rect width="64" height="64" rx="14" fill="#0d0d0d" />
  <rect x="3" y="3" width="58" height="58" rx="11" stroke="#1e1e1e" stroke-width="2" />
  <path
    d="M46 16H27.5C22.2533 16 19 19.1737 19 23.4C19 27.6263 22.2533 30.5 27.5 30.5H35.5C40.7467 30.5 44 33.3737 44 37.6C44 41.8263 40.7467 45 35.5 45H17"
    stroke="#7c3aed"
    stroke-width="5.5"
    stroke-linecap="round"
    stroke-linejoin="round"
  />
  <path
    d="M16 15.5L18.2 19.8L22.5 22L18.2 24.2L16 28.5L13.8 24.2L9.5 22L13.8 19.8L16 15.5Z"
    fill="#60a5fa"
  />
  <rect x="42" y="40" width="8" height="8" rx="2.2" fill="#f5f5f5" />
</svg>
