<svg xmlns="http://www.w3.org/2000/svg" viewBox="0 0 1600 980" fill="none">
  <rect width="1600" height="980" rx="32" fill="#080808"/>
  <rect x="16" y="16" width="1568" height="948" rx="24" fill="#0d0d0d" stroke="#1e1e1e"/>

  <rect x="16" y="16" width="1568" height="44" rx="24" fill="#0f0f0f"/>
  <rect x="34" y="28" width="14" height="14" rx="3" fill="#111111" stroke="#1e1e1e"/>
  <circle cx="72" cy="38" r="6" fill="#7c3aed"/>
  <text x="90" y="44" fill="#e0e0e0" font-family="'JetBrains Mono', monospace" font-size="18" font-weight="700">SiriusPad</text>
  <rect x="1180" y="24" width="190" height="28" rx="8" fill="#111111" stroke="#1e1e1e"/>
  <text x="1204" y="42" fill="#666666" font-family="'JetBrains Mono', monospace" font-size="12">Buscar</text>
  <rect x="1386" y="24" width="132" height="28" rx="8" fill="#111111" stroke="#1e1e1e"/>
  <text x="1412" y="42" fill="#a4a4a4" font-family="'JetBrains Mono', monospace" font-size="12">Settings</text>
  <text x="1540" y="41" fill="#666666" font-family="'JetBrains Mono', monospace" font-size="16">-</text>
  <rect x="1552" y="30" width="10" height="10" stroke="#666666"/>
  <text x="1572" y="41" fill="#666666" font-family="'JetBrains Mono', monospace" font-size="16">x</text>

  <rect x="16" y="60" width="280" height="880" fill="#0f0f0f"/>
  <line x1="296" y1="60" x2="296" y2="940" stroke="#1e1e1e"/>

  <rect x="32" y="78" width="248" height="40" rx="8" fill="#111111" stroke="#1e1e1e"/>
  <text x="54" y="103" fill="#555555" font-family="'JetBrains Mono', monospace" font-size="13">Buscar titulo ou conteudo</text>

  <text x="32" y="155" fill="#4a4a4a" font-family="'JetBrains Mono', monospace" font-size="11" letter-spacing="3">ESPACOS</text>
  <rect x="240" y="138" width="28" height="28" rx="8" fill="#111111" stroke="#1e1e1e"/>
  <text x="250" y="156" fill="#8f8f8f" font-family="'JetBrains Mono', monospace" font-size="18">+</text>

  <rect x="32" y="180" width="248" height="44" rx="8" fill="#161616" stroke="#1e1e1e"/>
  <rect x="32" y="180" width="3" height="44" fill="#7c3aed"/>
  <circle cx="52" cy="202" r="5" fill="#7c3aed"/>
  <text x="68" y="207" fill="#e0e0e0" font-family="'JetBrains Mono', monospace" font-size="15" font-weight="600">Geral</text>

  <rect x="32" y="232" width="248" height="44" rx="8" fill="#111111" stroke="#1e1e1e"/>
  <circle cx="52" cy="254" r="5" fill="#3b82f6"/>
  <text x="68" y="259" fill="#7e7e7e" font-family="'JetBrains Mono', monospace" font-size="15">API</text>

  <rect x="32" y="284" width="248" height="44" rx="8" fill="#111111" stroke="#1e1e1e"/>
  <circle cx="52" cy="306" r="5" fill="#10b981"/>
  <text x="68" y="311" fill="#7e7e7e" font-family="'JetBrains Mono', monospace" font-size="15">Snippets</text>

  <text x="32" y="368" fill="#4a4a4a" font-family="'JetBrains Mono', monospace" font-size="11" letter-spacing="3">NOTAS</text>
  <rect x="240" y="350" width="28" height="28" rx="8" fill="#111111" stroke="#1e1e1e"/>
  <text x="250" y="368" fill="#8f8f8f" font-family="'JetBrains Mono', monospace" font-size="18">+</text>

  <rect x="32" y="392" width="248" height="118" rx="10" fill="#161616" stroke="#1e1e1e"/>
  <rect x="32" y="392" width="3" height="118" fill="#7c3aed"/>
  <text x="46" y="426" fill="#e0e0e0" font-family="'JetBrains Mono', monospace" font-size="16" font-weight="600">Atualizar modal</text>
  <circle cx="46" cy="454" r="4" fill="#f59e0b"/>
  <text x="58" y="459" fill="#666666" font-family="'JetBrains Mono', monospace" font-size="12">ha 2 min</text>
  <rect x="46" y="474" width="58" height="20" rx="6" fill="#7c3aed" fill-opacity="0.12" stroke="#2d2060"/>
  <text x="60" y="487" fill="#a78bfa" font-family="'JetBrains Mono', monospace" font-size="11">ux</text>

  <rect x="32" y="522" width="248" height="104" rx="10" fill="#111111" stroke="#1e1e1e"/>
  <text x="46" y="556" fill="#cfcfcf" font-family="'JetBrains Mono', monospace" font-size="15">Checklist release</text>
  <circle cx="46" cy="584" r="4" fill="#10b981"/>
  <text x="58" y="589" fill="#666666" font-family="'JetBrains Mono', monospace" font-size="12">ha 18 min</text>
  <rect x="46" y="604" width="74" height="20" rx="6" fill="#1a1a2a" stroke="#222a45"/>
  <text x="60" y="617" fill="#60a5fa" font-family="'JetBrains Mono', monospace" font-size="11">note</text>

  <rect x="32" y="638" width="248" height="104" rx="10" fill="#111111" stroke="#1e1e1e"/>
  <text x="46" y="672" fill="#cfcfcf" font-family="'JetBrains Mono', monospace" font-size="15">Prompt showcase</text>
  <circle cx="46" cy="700" r="4" fill="#ef4444"/>
  <text x="58" y="705" fill="#666666" font-family="'JetBrains Mono', monospace" font-size="12">ontem</text>
  <rect x="46" y="720" width="72" height="20" rx="6" fill="#1a1530" stroke="#2d2060"/>
  <text x="58" y="733" fill="#a78bfa" font-family="'JetBrains Mono', monospace" font-size="11">feat</text>

  <rect x="296" y="60" width="1040" height="36" fill="#111111"/>
  <rect x="314" y="67" width="194" height="22" rx="7" fill="#161616" stroke="#1e1e1e"/>
  <text x="332" y="82" fill="#e0e0e0" font-family="'JetBrains Mono', monospace" font-size="12">Revisar modal de update</text>
  <text x="488" y="82" fill="#6a6a6a" font-family="'JetBrains Mono', monospace" font-size="12">x</text>

  <rect x="296" y="96" width="1040" height="144" fill="#111111"/>
  <line x1="296" y1="240" x2="1336" y2="240" stroke="#1e1e1e"/>
  <text x="326" y="146" fill="#e0e0e0" font-family="'JetBrains Mono', monospace" font-size="22" font-weight="700">Revisar modal de update</text>
  <rect x="882" y="116" width="72" height="28" rx="8" fill="#161616" stroke="#1e1e1e"/>
  <text x="899" y="134" fill="#d5d5d5" font-family="'JetBrains Mono', monospace" font-size="12">Editor</text>
  <rect x="960" y="116" width="88" height="28" rx="8" fill="#111111" stroke="#1e1e1e"/>
  <text x="974" y="134" fill="#757575" font-family="'JetBrains Mono', monospace" font-size="12">Dividido</text>
  <rect x="1054" y="116" width="74" height="28" rx="8" fill="#111111" stroke="#1e1e1e"/>
  <text x="1072" y="134" fill="#757575" font-family="'JetBrains Mono', monospace" font-size="12">Preview</text>

  <rect x="326" y="168" width="64" height="20" rx="6" fill="#1a1530" stroke="#2d2060"/>
  <text x="342" y="181" fill="#a78bfa" font-family="'JetBrains Mono', monospace" font-size="11">updater</text>
  <rect x="398" y="168" width="42" height="20" rx="6" fill="#1a1a2a" stroke="#222a45"/>
  <text x="411" y="181" fill="#60a5fa" font-family="'JetBrains Mono', monospace" font-size="11">ui</text>
  <rect x="456" y="162" width="88" height="32" rx="8" fill="#222222" stroke="#1e1e1e"/>
  <text x="472" y="182" fill="#d9d9d9" font-family="'JetBrains Mono', monospace" font-size="12">Prioridade</text>
  <circle cx="524" cy="178" r="4" fill="#f97316"/>
  <text x="326" y="216" fill="#4a4a4a" font-family="'JetBrains Mono', monospace" font-size="11" letter-spacing="3">COR DA NOTA</text>
  <rect x="426" y="202" width="24" height="24" rx="6" fill="#ef4444"/>
  <rect x="458" y="202" width="24" height="24" rx="6" fill="#f59e0b"/>
  <rect x="490" y="202" width="24" height="24" rx="6" fill="#10b981"/>
  <rect x="522" y="202" width="24" height="24" rx="6" fill="#3b82f6"/>
  <rect x="554" y="202" width="24" height="24" rx="6" fill="#7c3aed"/>
  <rect x="586" y="202" width="24" height="24" rx="6" fill="#374151"/>

  <rect x="296" y="240" width="1040" height="520" fill="#0d0d0d"/>
  <text x="338" y="292" fill="#8b8b8b" font-family="'JetBrains Mono', monospace" font-size="15">O modal de update agora precisa ficar mais claro, mais bonito e mais</text>
  <text x="338" y="324" fill="#8b8b8b" font-family="'JetBrains Mono', monospace" font-size="15">explicativo para o usuario entender o que vai acontecer.</text>
  <text x="338" y="380" fill="#e0e0e0" font-family="'JetBrains Mono', monospace" font-size="16">- mostrar versao atual e versao nova</text>
  <text x="338" y="412" fill="#e0e0e0" font-family="'JetBrains Mono', monospace" font-size="16">- resumir as novidades da release</text>
  <text x="338" y="444" fill="#e0e0e0" font-family="'JetBrains Mono', monospace" font-size="16">- destacar download, instalacao e reinicio</text>
  <text x="338" y="476" fill="#e0e0e0" font-family="'JetBrains Mono', monospace" font-size="16">- permitir continuar usando o app durante o download</text>

  <rect x="338" y="542" width="522" height="128" rx="10" fill="#111111" stroke="#1e1e1e"/>
  <text x="360" y="572" fill="#a78bfa" font-family="'JetBrains Mono', monospace" font-size="12" letter-spacing="2">RESUMO DA RELEASE</text>
  <text x="360" y="604" fill="#d4d4d4" font-family="'JetBrains Mono', monospace" font-size="14">Nova versao publica do SiriusPad</text>
  <text x="360" y="632" fill="#8f8f8f" font-family="'JetBrains Mono', monospace" font-size="13">- modal de update redesenhado</text>
  <text x="360" y="656" fill="#8f8f8f" font-family="'JetBrains Mono', monospace" font-size="13">- preparacao melhor do instalador</text>

  <rect x="884" y="542" width="406" height="128" rx="10" fill="#111111" stroke="#1e1e1e"/>
  <text x="906" y="572" fill="#60a5fa" font-family="'JetBrains Mono', monospace" font-size="12" letter-spacing="2">CHECKLIST</text>
  <text x="906" y="604" fill="#d4d4d4" font-family="'JetBrains Mono', monospace" font-size="14">[x] build</text>
  <text x="906" y="632" fill="#d4d4d4" font-family="'JetBrains Mono', monospace" font-size="14">[x] cargo check</text>
  <text x="906" y="660" fill="#d4d4d4" font-family="'JetBrains Mono', monospace" font-size="14">[ ] teste manual do fluxo de update</text>

  <rect x="296" y="760" width="1040" height="180" fill="#0b0b0b"/>
  <line x1="296" y1="760" x2="1336" y2="760" stroke="#1e1e1e"/>
  <rect x="316" y="776" width="120" height="28" rx="8" fill="#111111" stroke="#1e1e1e"/>
  <text x="334" y="794" fill="#e0e0e0" font-family="'JetBrains Mono', monospace" font-size="12">TERMINAL</text>
  <rect x="442" y="776" width="56" height="28" rx="8" fill="#161616" stroke="#1e1e1e"/>
  <text x="460" y="794" fill="#8f8f8f" font-family="'JetBrains Mono', monospace" font-size="12">bash</text>

  <rect x="316" y="820" width="1000" height="92" rx="10" fill="#111111" stroke="#1e1e1e"/>
  <text x="340" y="852" fill="#666666" font-family="'JetBrains Mono', monospace" font-size="12">/home/siriusdev/siriuspad/notes/general $ npm run build</text>
  <text x="340" y="882" fill="#34d399" font-family="'JetBrains Mono', monospace" font-size="13">built in 7.51s</text>

  <rect x="1336" y="60" width="248" height="880" fill="#0f0f0f"/>
  <line x1="1336" y1="60" x2="1336" y2="940" stroke="#1e1e1e"/>
  <text x="1360" y="92" fill="#4a4a4a" font-family="'JetBrains Mono', monospace" font-size="11" letter-spacing="3">COR DA NOTA</text>
  <rect x="1360" y="110" width="48" height="34" rx="8" fill="#ef4444"/>
  <rect x="1416" y="110" width="48" height="34" rx="8" fill="#f59e0b"/>
  <rect x="1472" y="110" width="48" height="34" rx="8" fill="#10b981"/>
  <rect x="1528" y="110" width="32" height="34" rx="8" fill="#3b82f6"/>
  <rect x="1360" y="152" width="48" height="34" rx="8" fill="#3b82f6"/>
  <rect x="1416" y="152" width="48" height="34" rx="8" fill="#7c3aed"/>
  <rect x="1472" y="152" width="48" height="34" rx="8" fill="#374151"/>
  <rect x="1528" y="152" width="32" height="34" rx="8" fill="#111827"/>

  <text x="1360" y="228" fill="#4a4a4a" font-family="'JetBrains Mono', monospace" font-size="11" letter-spacing="3">FILTRAR POR TAG</text>
  <rect x="1360" y="244" width="80" height="20" rx="6" fill="#1a1530" stroke="#2d2060"/>
  <text x="1375" y="257" fill="#a78bfa" font-family="'JetBrains Mono', monospace" font-size="11">updater</text>
  <rect x="1448" y="244" width="44" height="20" rx="6" fill="#1a1a2a" stroke="#222a45"/>
  <text x="1461" y="257" fill="#60a5fa" font-family="'JetBrains Mono', monospace" font-size="11">ui</text>

  <text x="1360" y="306" fill="#4a4a4a" font-family="'JetBrains Mono', monospace" font-size="11" letter-spacing="3">INFO</text>
  <rect x="1360" y="322" width="200" height="118" rx="10" fill="#111111" stroke="#1e1e1e"/>
  <text x="1380" y="352" fill="#666666" font-family="'JetBrains Mono', monospace" font-size="12">Criado em</text>
  <text x="1498" y="352" fill="#d4d4d4" font-family="'JetBrains Mono', monospace" font-size="12" text-anchor="end">20/03/2026</text>
  <text x="1380" y="382" fill="#666666" font-family="'JetBrains Mono', monospace" font-size="12">Palavras</text>
  <text x="1498" y="382" fill="#d4d4d4" font-family="'JetBrains Mono', monospace" font-size="12" text-anchor="end">84</text>
  <text x="1380" y="412" fill="#666666" font-family="'JetBrains Mono', monospace" font-size="12">Prioridade</text>
  <circle cx="1492" cy="408" r="4" fill="#f97316"/>
  <text x="1506" y="412" fill="#d4d4d4" font-family="'JetBrains Mono', monospace" font-size="12">Alta</text>

  <text x="1360" y="486" fill="#4a4a4a" font-family="'JetBrains Mono', monospace" font-size="11" letter-spacing="3">ATALHOS</text>
  <rect x="1360" y="502" width="200" height="170" rx="10" fill="#111111" stroke="#1e1e1e"/>
  <text x="1380" y="536" fill="#e0e0e0" font-family="'JetBrains Mono', monospace" font-size="13">Ctrl+N</text>
  <text x="1498" y="536" fill="#666666" font-family="'JetBrains Mono', monospace" font-size="12" text-anchor="end">Nova nota</text>
  <text x="1380" y="566" fill="#e0e0e0" font-family="'JetBrains Mono', monospace" font-size="13">Ctrl+S</text>
  <text x="1498" y="566" fill="#666666" font-family="'JetBrains Mono', monospace" font-size="12" text-anchor="end">Salvar</text>
  <text x="1380" y="596" fill="#e0e0e0" font-family="'JetBrains Mono', monospace" font-size="13">Ctrl+K</text>
  <text x="1498" y="596" fill="#666666" font-family="'JetBrains Mono', monospace" font-size="12" text-anchor="end">Paleta</text>
  <text x="1380" y="626" fill="#e0e0e0" font-family="'JetBrains Mono', monospace" font-size="13">Ctrl+`</text>
  <text x="1498" y="626" fill="#666666" font-family="'JetBrains Mono', monospace" font-size="12" text-anchor="end">Terminal</text>

  <rect x="16" y="940" width="1568" height="24" fill="#0f0f0f"/>
  <text x="36" y="956" fill="#666666" font-family="'JetBrains Mono', monospace" font-size="11">ESPACO: GERAL</text>
  <text x="192" y="956" fill="#666666" font-family="'JetBrains Mono', monospace" font-size="11">MARKDOWN</text>
  <text x="310" y="956" fill="#666666" font-family="'JetBrains Mono', monospace" font-size="11">SALVO</text>
  <text x="388" y="956" fill="#666666" font-family="'JetBrains Mono', monospace" font-size="11">LN 18</text>
  <text x="452" y="956" fill="#666666" font-family="'JetBrains Mono', monospace" font-size="11">COL 4</text>
  <text x="1560" y="956" fill="#666666" font-family="'JetBrains Mono', monospace" font-size="11" text-anchor="end">1.0.11</text>
</svg>
